<svg version="1.1" id="Layer_1" xmlns="http://www.w3.org/2000/svg" xmlns:xlink="http://www.w3.org/1999/xlink" x="0px" y="0px"
	 width="100%" viewBox="0 0 500 500" enable-background="new 0 0 500 500" xml:space="preserve">
<path fill="#010101" opacity="1.000000" stroke="none" 
	d="
M1.000002,415.000000 
	C1.000000,315.312439 1.000000,215.624878 1.319640,115.125023 
	C2.097745,115.269150 2.764537,116.180183 2.984253,117.188622 
	C8.711985,143.477463 22.735580,164.345871 45.254337,178.822281 
	C80.583626,201.534042 124.327934,199.138824 157.549530,173.532791 
	C195.246109,144.477661 205.528351,89.678284 181.059326,48.811214 
	C166.204300,24.001034 144.391525,9.152761 116.384003,2.925306 
	C115.490799,2.726703 114.790321,1.661313 114.000000,0.999999 
	C213.020889,1.000000 312.041779,1.000000 411.671082,1.381249 
	C454.190308,7.693312 481.993652,30.905357 496.109650,70.590958 
	C498.335480,76.848747 499.399048,83.519943 501.000000,90.000000 
	C501.000000,97.020950 501.000000,104.041893 500.535461,111.468971 
	C485.792755,112.871643 471.473969,113.472519 457.243835,114.936020 
	C406.587372,120.145836 356.508301,128.924683 306.834381,140.060959 
	C270.697540,148.162384 234.818863,157.236832 199.950073,169.856995 
	C183.403931,175.845596 166.781448,181.819550 153.016708,193.407440 
	C150.981140,195.121063 148.908997,196.806198 147.008286,198.662689 
	C130.593155,214.695724 130.074234,232.542130 145.994370,249.026688 
	C165.622208,269.350372 190.854324,280.829132 216.175034,291.804352 
	C226.608444,296.326752 238.043137,298.478424 248.772781,302.392670 
	C263.721008,307.845886 278.738251,313.337830 291.447418,323.401306 
	C303.508850,332.951904 306.169098,345.728058 297.792786,358.664703 
	C293.691498,364.998871 288.488220,370.910736 282.786865,375.867096 
	C258.574097,396.915863 230.203232,411.264160 201.408524,424.729248 
	C152.804840,447.457397 102.600136,466.186646 52.006798,483.925568 
	C48.666252,485.096832 46.186649,484.959930 43.312603,482.844269 
	C22.360565,467.420959 8.870608,447.150482 3.080517,421.760437 
	C2.557739,419.468048 1.701423,417.251678 1.000002,415.000000 
M168.865524,341.215820 
	C168.846878,339.216400 168.826599,337.216980 168.809875,335.217560 
	C168.698532,321.901947 170.299149,323.335297 156.765274,323.126801 
	C152.456375,323.060455 150.874847,324.473389 150.951904,328.879639 
	C151.173294,341.541229 150.937759,354.210083 151.050812,366.874573 
	C151.177048,381.014038 149.046478,378.651154 163.233093,379.084961 
	C167.333023,379.210297 169.031723,377.811157 168.848648,373.657349 
	C168.639404,368.909271 168.800201,364.144928 168.800201,359.446838 
	C173.463913,359.446838 177.339523,359.446838 181.725204,359.446838 
	C181.725204,362.178589 181.691452,364.479279 181.730728,366.778717 
	C181.974457,381.049866 179.430923,378.687073 194.288681,379.059875 
	C198.056549,379.154419 199.147705,377.533691 199.106735,373.951172 
	C198.958130,360.954071 199.145935,347.953247 199.019714,334.955658 
	C198.894135,322.025879 201.521912,323.327240 186.943985,323.138397 
	C183.122528,323.088898 181.457321,324.336334 181.656479,328.319489 
	C181.894043,333.071381 181.712463,337.844238 181.712463,343.321747 
	C176.878174,342.862183 172.995163,342.493042 168.865524,341.215820 
M280.309143,337.599426 
	C280.309082,336.766632 280.302856,335.933777 280.309875,335.101044 
	C280.422577,321.742676 282.530426,323.322052 267.959290,323.162628 
	C264.286469,323.122437 262.978729,324.630157 263.030884,328.249390 
	C263.177216,338.407104 262.922546,348.571808 263.148590,358.726593 
	C263.249207,363.245972 261.574615,365.121277 257.069641,365.037262 
	C251.688339,364.936890 250.304550,363.922699 250.255844,358.836792 
	C250.179306,350.842865 250.314468,342.846710 250.216034,334.853241 
	C250.051331,321.479370 252.366379,323.430267 238.102097,323.150085 
	C233.969986,323.068970 232.685272,324.763641 232.759979,328.810272 
	C232.978226,340.631714 232.788528,352.460052 232.865646,364.284973 
	C232.920486,372.694214 236.017136,377.549988 244.354538,378.625397 
	C252.617950,379.691284 261.251404,379.561432 269.517822,378.442963 
	C277.205231,377.402832 280.165558,372.590271 280.267578,364.554626 
	C280.377533,355.895081 280.303436,347.233246 280.309143,337.599426 
M78.684845,358.941376 
	C77.512032,371.294769 81.689117,377.623566 92.809822,378.706360 
	C100.402672,379.445587 108.121849,379.039642 115.775902,378.829742 
	C116.890419,378.799194 118.700920,377.152985 118.928596,376.004425 
	C120.941750,365.848755 119.435089,364.169403 109.222664,364.104797 
	C94.451492,364.011322 96.050018,365.934998 96.099243,351.177155 
	C96.141472,338.513580 93.449532,337.964539 108.890068,338.123993 
	C119.923500,338.237915 119.845047,338.150085 119.118698,327.099182 
	C118.938492,324.357513 117.910622,323.108398 115.203568,323.192902 
	C107.226906,323.441895 99.217133,323.313354 91.282097,324.023193 
	C83.104622,324.754639 78.907379,329.763397 78.732063,338.050964 
	C78.591156,344.711823 78.696442,351.377869 78.684845,358.941376 
z"/>
<path fill="#FEFEFE" opacity="1.000000" stroke="none" 
	d="
M1.000002,415.468658 
	C1.701423,417.251678 2.557739,419.468048 3.080517,421.760437 
	C8.870608,447.150482 22.360565,467.420959 43.312603,482.844269 
	C46.186649,484.959930 48.666252,485.096832 52.006798,483.925568 
	C102.600136,466.186646 152.804840,447.457397 201.408524,424.729248 
	C230.203232,411.264160 258.574097,396.915863 282.786865,375.867096 
	C288.488220,370.910736 293.691498,364.998871 297.792786,358.664703 
	C306.169098,345.728058 303.508850,332.951904 291.447418,323.401306 
	C278.738251,313.337830 263.721008,307.845886 248.772781,302.392670 
	C238.043137,298.478424 226.608444,296.326752 216.175034,291.804352 
	C190.854324,280.829132 165.622208,269.350372 145.994370,249.026688 
	C130.074234,232.542130 130.593155,214.695724 147.008286,198.662689 
	C148.908997,196.806198 150.981140,195.121063 153.016708,193.407440 
	C166.781448,181.819550 183.403931,175.845596 199.950073,169.856995 
	C234.818863,157.236832 270.697540,148.162384 306.834381,140.060959 
	C356.508301,128.924683 406.587372,120.145836 457.243835,114.936020 
	C471.473969,113.472519 485.792755,112.871643 500.535461,111.937546 
	C501.000000,113.388893 501.000000,114.777779 500.594147,116.413177 
	C498.543610,116.908630 496.884003,117.084503 495.256500,117.417473 
	C470.007080,122.583199 444.769043,127.804527 419.514160,132.943283 
	C367.867371,143.452133 316.358459,154.542496 266.234650,171.119492 
	C249.330200,176.710144 232.491135,182.730728 218.246109,193.914642 
	C207.635895,202.244827 208.426758,211.066498 220.037033,217.980621 
	C220.893311,218.490570 221.759460,219.046753 222.695969,219.349731 
	C235.796982,223.588257 248.742126,228.443436 262.054962,231.865799 
	C296.014648,240.595886 330.337097,247.964737 364.135559,257.256226 
	C390.547394,264.517090 415.560364,275.421234 437.103027,293.134369 
	C458.890106,311.048492 465.948578,336.982483 455.625061,363.083069 
	C449.544586,378.456024 440.475708,392.054382 429.328552,404.052887 
	C417.096527,417.219116 403.838379,429.425568 391.346191,442.358246 
	C374.925781,459.357788 358.764648,476.609589 342.648468,493.898743 
	C340.902466,495.771912 340.191254,498.609680 339.000000,501.000000 
	C226.449661,501.000000 113.899315,501.000000 1.000000,501.000000 
	C1.000000,472.646729 1.000000,444.292023 1.000002,415.468658 
M311.024109,354.499969 
	C311.024384,358.832275 310.969330,363.165405 311.035217,367.496704 
	C311.239441,380.920990 309.043732,378.642822 322.737396,379.103424 
	C327.322083,379.257629 328.442780,377.590485 328.262268,373.342773 
	C327.962799,366.296692 328.180756,359.228577 328.180756,350.875946 
	C330.562439,353.647888 332.059723,355.342621 333.503510,357.081787 
	C335.842285,359.898987 338.224579,362.686584 340.415131,365.616302 
	C341.047302,366.461761 341.280151,367.736481 341.365234,368.839935 
	C342.152191,379.045349 342.131134,379.046906 352.474030,379.011719 
	C352.807281,379.010590 353.146454,378.970276 353.472931,379.017151 
	C357.786285,379.636261 358.857025,377.499268 358.803558,373.528015 
	C358.630920,360.700073 358.788513,347.868134 358.731018,335.038116 
	C358.669373,321.282959 360.368896,323.553406 346.702881,323.165710 
	C342.414886,323.044037 341.116974,324.774994 341.340637,328.772003 
	C341.571381,332.895386 341.391907,337.041718 341.391907,342.449554 
	C336.753296,337.156189 332.922394,333.382812 329.820068,329.083679 
	C326.406799,324.353699 322.208801,322.907867 316.544952,323.079803 
	C312.052277,323.216248 310.813873,324.752960 310.953186,329.008423 
	C311.220215,337.164307 311.026581,345.335297 311.024109,354.499969 
M385.438110,359.329468 
	C385.510193,374.289246 390.128754,378.918213 405.140076,379.000580 
	C412.461945,379.040710 419.787781,378.873840 427.104736,379.067871 
	C430.598785,379.160522 431.914398,377.836029 431.789001,374.422607 
	C431.636383,370.267975 431.829437,366.101837 431.743958,361.943329 
	C431.448883,347.589783 434.512085,349.772125 418.369568,349.513336 
	C415.261230,349.463531 413.786255,350.613525 413.994446,353.932129 
	C414.208221,357.340057 414.041840,360.771851 414.041840,364.298431 
	C412.217834,364.298431 411.054657,364.295593 409.891449,364.298920 
	C403.294952,364.317719 403.050018,364.089691 403.032593,357.699554 
	C403.020813,353.372894 403.268555,349.029907 402.971436,344.723816 
	C402.644379,339.983765 404.487640,337.951660 409.248230,338.143707 
	C413.733765,338.324646 418.242401,338.330994 422.720032,338.064117 
	C424.050171,337.984833 426.321930,336.842712 426.423767,335.981934 
	C426.830200,332.546722 426.770325,329.005341 426.374969,325.561554 
	C426.273987,324.681793 424.310913,323.361938 423.198303,323.356903 
	C415.224121,323.320770 407.194885,323.050262 399.287140,323.864471 
	C389.473114,324.874939 385.755127,329.471252 385.496796,339.400055 
	C385.332367,345.719604 385.447418,352.046417 385.438110,359.329468 
z"/>
<path fill="#737373" opacity="1.000000" stroke="none" 
	d="
M339.468658,501.000000 
	C340.191254,498.609680 340.902466,495.771912 342.648468,493.898743 
	C358.764648,476.609589 374.925781,459.357788 391.346191,442.358246 
	C403.838379,429.425568 417.096527,417.219116 429.328552,404.052887 
	C440.475708,392.054382 449.544586,378.456024 455.625061,363.083069 
	C465.948578,336.982483 458.890106,311.048492 437.103027,293.134369 
	C415.560364,275.421234 390.547394,264.517090 364.135559,257.256226 
	C330.337097,247.964737 296.014648,240.595886 262.054962,231.865799 
	C248.742126,228.443436 235.796982,223.588257 222.695969,219.349731 
	C221.759460,219.046753 220.893311,218.490570 220.037033,217.980621 
	C208.426758,211.066498 207.635895,202.244827 218.246109,193.914642 
	C232.491135,182.730728 249.330200,176.710144 266.234650,171.119492 
	C316.358459,154.542496 367.867371,143.452133 419.514160,132.943283 
	C444.769043,127.804527 470.007080,122.583199 495.256500,117.417473 
	C496.884003,117.084503 498.543610,116.908630 500.594147,116.829834 
	C501.000000,215.354233 501.000000,313.708466 500.672119,412.745789 
	C500.229340,413.911652 500.069641,414.388611 500.006042,414.878052 
	C494.942657,453.873108 465.764618,487.108978 427.674133,497.235596 
	C422.794098,498.532990 417.891907,499.747223 413.000000,501.000000 
	C388.645782,501.000000 364.291534,501.000000 339.468658,501.000000 
z"/>
<path fill="#FCFCFC" opacity="1.000000" stroke="none" 
	d="
M113.531342,0.999999 
	C114.790321,1.661313 115.490799,2.726703 116.384003,2.925306 
	C144.391525,9.152761 166.204300,24.001034 181.059326,48.811214 
	C205.528351,89.678284 195.246109,144.477661 157.549530,173.532791 
	C124.327934,199.138824 80.583626,201.534042 45.254337,178.822281 
	C22.735580,164.345871 8.711985,143.477463 2.984253,117.188622 
	C2.764537,116.180183 2.097745,115.269150 1.319640,114.656364 
	C1.000000,77.073372 1.000000,39.146740 1.000000,1.000000 
	C38.353939,1.000000 75.708313,1.000000 113.531342,0.999999 
M91.086258,174.533997 
	C140.970276,178.962540 180.852600,136.161301 174.041931,88.062820 
	C169.339233,54.851242 150.288406,32.397934 118.121902,23.518148 
	C86.818504,14.876637 59.150238,23.799311 38.297588,48.863075 
	C18.916906,72.157608 15.135695,99.193359 26.635302,127.111320 
	C38.160934,155.092468 60.144081,170.540482 91.086258,174.533997 
z"/>
<path fill="#FDFDFD" opacity="1.000000" stroke="none" 
	d="
M501.000000,89.531342 
	C499.399048,83.519943 498.335480,76.848747 496.109650,70.590958 
	C481.993652,30.905357 454.190308,7.693312 412.139740,1.381249 
	C441.593567,1.000000 471.187164,1.000000 501.000000,1.000000 
	C501.000000,30.353865 501.000000,59.708275 501.000000,89.531342 
z"/>
<path fill="#FEFEFE" opacity="1.000000" stroke="none" 
	d="
M413.468658,501.000000 
	C417.891907,499.747223 422.794098,498.532990 427.674133,497.235596 
	C465.764618,487.108978 494.942657,453.873108 500.006042,414.878052 
	C500.069641,414.388611 500.229340,413.911652 500.672119,413.214417 
	C501.000000,442.260254 501.000000,471.520477 501.000000,501.000000 
	C471.979462,501.000000 442.958405,501.000000 413.468658,501.000000 
z"/>
<path fill="#717171" opacity="1.000000" stroke="none" 
	d="
M168.988831,341.669861 
	C172.995163,342.493042 176.878174,342.862183 181.712463,343.321747 
	C181.712463,337.844238 181.894043,333.071381 181.656479,328.319489 
	C181.457321,324.336334 183.122528,323.088898 186.943985,323.138397 
	C201.521912,323.327240 198.894135,322.025879 199.019714,334.955658 
	C199.145935,347.953247 198.958130,360.954071 199.106735,373.951172 
	C199.147705,377.533691 198.056549,379.154419 194.288681,379.059875 
	C179.430923,378.687073 181.974457,381.049866 181.730728,366.778717 
	C181.691452,364.479279 181.725204,362.178589 181.725204,359.446838 
	C177.339523,359.446838 173.463913,359.446838 168.800201,359.446838 
	C168.800201,364.144928 168.639404,368.909271 168.848648,373.657349 
	C169.031723,377.811157 167.333023,379.210297 163.233093,379.084961 
	C149.046478,378.651154 151.177048,381.014038 151.050812,366.874573 
	C150.937759,354.210083 151.173294,341.541229 150.951904,328.879639 
	C150.874847,324.473389 152.456375,323.060455 156.765274,323.126801 
	C170.299149,323.335297 168.698532,321.901947 168.809875,335.217560 
	C168.826599,337.216980 168.846878,339.216400 168.988831,341.669861 
z"/>
<path fill="#727272" opacity="1.000000" stroke="none" 
	d="
M280.309387,338.085907 
	C280.303436,347.233246 280.377533,355.895081 280.267578,364.554626 
	C280.165558,372.590271 277.205231,377.402832 269.517822,378.442963 
	C261.251404,379.561432 252.617950,379.691284 244.354538,378.625397 
	C236.017136,377.549988 232.920486,372.694214 232.865646,364.284973 
	C232.788528,352.460052 232.978226,340.631714 232.759979,328.810272 
	C232.685272,324.763641 233.969986,323.068970 238.102097,323.150085 
	C252.366379,323.430267 250.051331,321.479370 250.216034,334.853241 
	C250.314468,342.846710 250.179306,350.842865 250.255844,358.836792 
	C250.304550,363.922699 251.688339,364.936890 257.069641,365.037262 
	C261.574615,365.121277 263.249207,363.245972 263.148590,358.726593 
	C262.922546,348.571808 263.177216,338.407104 263.030884,328.249390 
	C262.978729,324.630157 264.286469,323.122437 267.959290,323.162628 
	C282.530426,323.322052 280.422577,321.742676 280.309875,335.101044 
	C280.302856,335.933777 280.309082,336.766632 280.309387,338.085907 
z"/>
<path fill="#717171" opacity="1.000000" stroke="none" 
	d="
M78.688660,358.491516 
	C78.696442,351.377869 78.591156,344.711823 78.732063,338.050964 
	C78.907379,329.763397 83.104622,324.754639 91.282097,324.023193 
	C99.217133,323.313354 107.226906,323.441895 115.203568,323.192902 
	C117.910622,323.108398 118.938492,324.357513 119.118698,327.099182 
	C119.845047,338.150085 119.923500,338.237915 108.890068,338.123993 
	C93.449532,337.964539 96.141472,338.513580 96.099243,351.177155 
	C96.050018,365.934998 94.451492,364.011322 109.222664,364.104797 
	C119.435089,364.169403 120.941750,365.848755 118.928596,376.004425 
	C118.700920,377.152985 116.890419,378.799194 115.775902,378.829742 
	C108.121849,379.039642 100.402672,379.445587 92.809822,378.706360 
	C81.689117,377.623566 77.512032,371.294769 78.688660,358.491516 
z"/>
<path fill="#060606" opacity="1.000000" stroke="none" 
	d="
M311.024109,354.000000 
	C311.026581,345.335297 311.220215,337.164307 310.953186,329.008423 
	C310.813873,324.752960 312.052277,323.216248 316.544952,323.079803 
	C322.208801,322.907867 326.406799,324.353699 329.820068,329.083679 
	C332.922394,333.382812 336.753296,337.156189 341.391907,342.449554 
	C341.391907,337.041718 341.571381,332.895386 341.340637,328.772003 
	C341.116974,324.774994 342.414886,323.044037 346.702881,323.165710 
	C360.368896,323.553406 358.669373,321.282959 358.731018,335.038116 
	C358.788513,347.868134 358.630920,360.700073 358.803558,373.528015 
	C358.857025,377.499268 357.786285,379.636261 353.472931,379.017151 
	C353.146454,378.970276 352.807281,379.010590 352.474030,379.011719 
	C342.131134,379.046906 342.152191,379.045349 341.365234,368.839935 
	C341.280151,367.736481 341.047302,366.461761 340.415131,365.616302 
	C338.224579,362.686584 335.842285,359.898987 333.503510,357.081787 
	C332.059723,355.342621 330.562439,353.647888 328.180756,350.875946 
	C328.180756,359.228577 327.962799,366.296692 328.262268,373.342773 
	C328.442780,377.590485 327.322083,379.257629 322.737396,379.103424 
	C309.043732,378.642822 311.239441,380.920990 311.035217,367.496704 
	C310.969330,363.165405 311.024384,358.832275 311.024109,354.000000 
z"/>
<path fill="#070707" opacity="1.000000" stroke="none" 
	d="
M385.437622,358.849731 
	C385.447418,352.046417 385.332367,345.719604 385.496796,339.400055 
	C385.755127,329.471252 389.473114,324.874939 399.287140,323.864471 
	C407.194885,323.050262 415.224121,323.320770 423.198303,323.356903 
	C424.310913,323.361938 426.273987,324.681793 426.374969,325.561554 
	C426.770325,329.005341 426.830200,332.546722 426.423767,335.981934 
	C426.321930,336.842712 424.050171,337.984833 422.720032,338.064117 
	C418.242401,338.330994 413.733765,338.324646 409.248230,338.143707 
	C404.487640,337.951660 402.644379,339.983765 402.971436,344.723816 
	C403.268555,349.029907 403.020813,353.372894 403.032593,357.699554 
	C403.050018,364.089691 403.294952,364.317719 409.891449,364.298920 
	C411.054657,364.295593 412.217834,364.298431 414.041840,364.298431 
	C414.041840,360.771851 414.208221,357.340057 413.994446,353.932129 
	C413.786255,350.613525 415.261230,349.463531 418.369568,349.513336 
	C434.512085,349.772125 431.448883,347.589783 431.743958,361.943329 
	C431.829437,366.101837 431.636383,370.267975 431.789001,374.422607 
	C431.914398,377.836029 430.598785,379.160522 427.104736,379.067871 
	C419.787781,378.873840 412.461945,379.040710 405.140076,379.000580 
	C390.128754,378.918213 385.510193,374.289246 385.437622,358.849731 
z"/>
<path fill="#040404" opacity="1.000000" stroke="none" 
	d="
M90.640457,174.459579 
	C60.144081,170.540482 38.160934,155.092468 26.635302,127.111320 
	C15.135695,99.193359 18.916906,72.157608 38.297588,48.863075 
	C59.150238,23.799311 86.818504,14.876637 118.121902,23.518148 
	C150.288406,32.397934 169.339233,54.851242 174.041931,88.062820 
	C180.852600,136.161301 140.970276,178.962540 90.640457,174.459579 
M23.564674,87.228249 
	C23.272423,92.812584 22.980171,98.396927 22.743876,102.912064 
	C30.829750,102.415871 38.545242,100.642632 45.824806,101.745850 
	C65.569450,104.738174 81.255371,122.241341 83.853287,143.834045 
	C84.925591,152.746536 84.031006,161.895691 84.031006,171.430695 
	C93.027504,173.098862 102.773788,173.665009 112.299973,171.021683 
	C111.676666,165.739838 110.815811,160.983871 110.603745,156.199127 
	C109.779388,137.599930 116.061386,121.725479 130.630707,110.033737 
	C142.905380,100.183418 157.000290,98.315880 173.042542,104.785446 
	C172.450882,97.505157 171.731110,91.155067 171.472153,84.786232 
	C171.189835,77.843102 167.110718,74.365112 161.278870,71.703323 
	C119.205528,52.500038 77.124352,52.612679 34.921574,71.228806 
	C28.225376,74.182571 23.578867,78.447258 23.564674,87.228249 
z"/>
<path fill="#FBFBFB" opacity="1.000000" stroke="none" 
	d="
M23.660400,86.799942 
	C23.578867,78.447258 28.225376,74.182571 34.921574,71.228806 
	C77.124352,52.612679 119.205528,52.500038 161.278870,71.703323 
	C167.110718,74.365112 171.189835,77.843102 171.472153,84.786232 
	C171.731110,91.155067 172.450882,97.505157 173.042542,104.785446 
	C157.000290,98.315880 142.905380,100.183418 130.630707,110.033737 
	C116.061386,121.725479 109.779388,137.599930 110.603745,156.199127 
	C110.815811,160.983871 111.676666,165.739838 112.299973,171.021683 
	C102.773788,173.665009 93.027504,173.098862 84.031006,171.430695 
	C84.031006,161.895691 84.925591,152.746536 83.853287,143.834045 
	C81.255371,122.241341 65.569450,104.738174 45.824806,101.745850 
	C38.545242,100.642632 30.829750,102.415871 22.743876,102.912064 
	C22.980171,98.396927 23.272423,92.812584 23.660400,86.799942 
M117.064514,98.350967 
	C117.275398,97.722710 117.538750,97.106743 117.689262,96.464333 
	C119.805237,87.433167 116.589203,78.934273 109.304642,74.264069 
	C101.021835,68.953873 92.430092,69.404427 84.386711,75.570763 
	C78.011169,80.458473 75.419716,89.490707 78.074188,97.572388 
	C80.641083,105.387459 88.065308,111.439171 96.174477,111.790901 
	C105.803024,112.208527 112.645630,107.716797 117.064514,98.350967 
M58.531574,84.967964 
	C54.815418,89.117752 54.278748,92.791756 57.166977,96.003098 
	C59.800259,98.930977 63.074013,99.761803 66.607399,97.727097 
	C70.322769,95.587593 71.228912,92.186394 69.915657,88.289566 
	C68.500015,84.088913 64.819672,82.899269 58.531574,84.967964 
M138.827545,86.943237 
	C133.676376,81.903053 126.484665,82.846321 125.427666,89.062569 
	C124.999756,91.579117 126.523872,95.084602 128.305328,97.153763 
	C130.540161,99.749519 134.055771,99.395981 136.843063,97.277191 
	C140.135559,94.774345 141.017685,91.491081 138.827545,86.943237 
z"/>
<path fill="#1F1F1F" opacity="1.000000" stroke="none" 
	d="
M116.943878,98.717468 
	C112.645630,107.716797 105.803024,112.208527 96.174477,111.790901 
	C88.065308,111.439171 80.641083,105.387459 78.074188,97.572388 
	C75.419716,89.490707 78.011169,80.458473 84.386711,75.570763 
	C92.430092,69.404427 101.021835,68.953873 109.304642,74.264069 
	C116.589203,78.934273 119.805237,87.433167 117.689262,96.464333 
	C117.538750,97.106743 117.275398,97.722710 116.943878,98.717468 
M113.375885,100.610909 
	C117.421150,92.792175 116.817398,85.511917 111.614632,79.373009 
	C106.899620,73.809616 98.832680,71.470596 92.295158,73.771309 
	C84.438766,76.536163 79.063965,83.783554 79.238014,91.377579 
	C79.412254,98.980042 84.545189,106.034615 91.618393,108.392853 
	C99.985512,111.182487 107.150513,108.784004 113.375885,100.610909 
z"/>
<path fill="#232323" opacity="1.000000" stroke="none" 
	d="
M58.836388,84.756065 
	C64.819672,82.899269 68.500015,84.088913 69.915657,88.289566 
	C71.228912,92.186394 70.322769,95.587593 66.607399,97.727097 
	C63.074013,99.761803 59.800259,98.930977 57.166977,96.003098 
	C54.278748,92.791756 54.815418,89.117752 58.836388,84.756065 
M57.914814,89.825699 
	C58.893097,91.882576 59.436562,94.445786 61.016251,95.802330 
	C61.932331,96.589005 65.038826,96.025162 66.201683,94.991447 
	C67.397972,93.928032 68.075111,91.435783 67.772354,89.790939 
	C67.517792,88.407959 65.443176,86.277184 64.326935,86.367340 
	C62.187916,86.540115 60.157272,88.054764 57.914814,89.825699 
z"/>
<path fill="#202020" opacity="1.000000" stroke="none" 
	d="
M138.993164,87.296051 
	C141.017685,91.491081 140.135559,94.774345 136.843063,97.277191 
	C134.055771,99.395981 130.540161,99.749519 128.305328,97.153763 
	C126.523872,95.084602 124.999756,91.579117 125.427666,89.062569 
	C126.484665,82.846321 133.676376,81.903053 138.993164,87.296051 
M137.750824,92.230850 
	C136.493164,90.195686 135.574173,86.933060 133.883667,86.466614 
	C132.153305,85.989174 128.748978,87.750893 127.808426,89.476173 
	C127.084312,90.804413 128.421173,94.410240 129.937073,95.563972 
	C133.036560,97.922966 135.756912,96.232323 137.750824,92.230850 
z"/>
<path fill="#FBFBFB" opacity="1.000000" stroke="none" 
	d="
M113.171677,100.928589 
	C107.150513,108.784004 99.985512,111.182487 91.618393,108.392853 
	C84.545189,106.034615 79.412254,98.980042 79.238014,91.377579 
	C79.063965,83.783554 84.438766,76.536163 92.295158,73.771309 
	C98.832680,71.470596 106.899620,73.809616 111.614632,79.373009 
	C116.817398,85.511917 117.421150,92.792175 113.171677,100.928589 
z"/>
<path fill="#F6F6F6" opacity="1.000000" stroke="none" 
	d="
M57.998238,89.419174 
	C60.157272,88.054764 62.187916,86.540115 64.326935,86.367340 
	C65.443176,86.277184 67.517792,88.407959 67.772354,89.790939 
	C68.075111,91.435783 67.397972,93.928032 66.201683,94.991447 
	C65.038826,96.025162 61.932331,96.589005 61.016251,95.802330 
	C59.436562,94.445786 58.893097,91.882576 57.998238,89.419174 
z"/>
<path fill="#EFEFEF" opacity="1.000000" stroke="none" 
	d="
M137.603973,92.596909 
	C135.756912,96.232323 133.036560,97.922966 129.937073,95.563972 
	C128.421173,94.410240 127.084312,90.804413 127.808426,89.476173 
	C128.748978,87.750893 132.153305,85.989174 133.883667,86.466614 
	C135.574173,86.933060 136.493164,90.195686 137.603973,92.596909 
z"/>
</svg>